<svg xmlns="http://www.w3.org/2000/svg" version="1.1" xmlns:xlink="http://www.w3.org/1999/xlink" xmlns:svgjs="http://svgjs.dev/svgjs" width="1500" height="1500" viewBox="0 0 1500 1500"><rect width="1500" height="1500" fill="#000000"></rect><g transform="matrix(0.6666666666666666,0,0,0.6666666666666666,249.39393939393938,677.6281983380238)"><svg viewBox="0 0 396 57" data-background-color="#000000" preserveAspectRatio="xMidYMid meet" height="215" width="1500" xmlns="http://www.w3.org/2000/svg" xmlns:xlink="http://www.w3.org/1999/xlink"><g id="tight-bounds" transform="matrix(1,0,0,1,0.2400000000000091,0.2804141492975134)"><svg viewBox="0 0 395.52 56.439171701404995" height="56.439171701404995" width="395.52"><g><svg viewBox="0 0 508.97151789226336 72.62826377792824" height="56.439171701404995" width="395.52"><g transform="matrix(1,0,0,1,0,10.03762545700745)"><svg viewBox="0 0 395.52 52.55301286391334" height="52.55301286391334" width="395.52"><g id="textblocktransform"><svg viewBox="0 0 395.52 52.55301286391334" height="52.55301286391334" width="395.52" id="textblock"><g><svg viewBox="0 0 395.52 52.55301286391334" height="52.55301286391334" width="395.52"><g transform="matrix(1,0,0,1,0,0)"><svg width="395.52" viewBox="4 -38.7 295.37 39.25" height="52.55301286391334" data-palette-color="#e4a7bf"><path d="M23.4-33.5L30.5-34.75 29.8-13 30.4 0 23.4 0 24-12.15 23.9-14.8 10.45-14.8 10.4-13 11 0 4 0 4.6-12.15 4-33.5 11.1-34.75 10.6-20.1 23.75-20.1 23.4-33.5ZM46.4-5.1L46.4-5.1Q47.85-5.1 49.45-5.85 51.05-6.6 51.95-7.35L51.95-7.35 52.85-8.1 55.15-5.3Q54.65-4.45 53.6-3.35 52.55-2.25 51.47-1.48 50.4-0.7 48.62-0.08 46.85 0.55 44.95 0.55L44.95 0.55Q40.9 0.55 38.35-2.53 35.8-5.6 35.8-10.45L35.8-10.45Q35.8-16.55 39.35-21.15 42.9-25.75 47.65-25.75L47.65-25.75Q51.3-25.75 53.32-23.7 55.35-21.65 55.35-17.95L55.35-17.95Q55.35-15.75 54.6-12.95L54.6-12.95 53.6-11.9 41.1-10.75Q41.95-5.1 46.4-5.1ZM46.4-20.6L46.4-20.6Q44.2-20.6 42.7-18.82 41.2-17.05 40.95-14.3L40.95-14.3 49.45-15.35Q49.6-16.5 49.6-17.25L49.6-17.25Q49.6-20.6 46.4-20.6ZM64.7 0Q61.75 0 59.87-1.88 58-3.75 58-6.93 58-10.1 60.9-12.43 63.8-14.75 67.95-14.75L67.95-14.75 71.34-14.75 71.34-15.6Q71.34-18.05 70.34-18.95 69.34-19.85 66.59-19.85L66.59-19.85Q65.45-19.85 63.87-19.38 62.3-18.9 60.34-17.9L60.34-17.9 58.9-21.85Q61.05-23.35 64.12-24.55 67.2-25.75 69.2-25.75L69.2-25.75Q77.05-25.75 77.05-18.15L77.05-18.15 77.05-8.35Q77.05-5.55 78.8-2.1L78.8-2.1 73.5 0.15Q72.25-2.25 71.65-4.15L71.65-4.15Q68.9 0 64.7 0L64.7 0ZM66.8-5.1L66.8-5.1Q68.8-5.1 71.34-7.15L71.34-7.15 71.34-10.5Q68.7-11.1 67.05-11.1L67.05-11.1Q63.9-11.1 63.9-8.3L63.9-8.3Q63.9-6.85 64.7-5.98 65.5-5.1 66.8-5.1ZM83.14-37.45L89.99-38.7 89.34-13 89.89-1.25 83.14 0 83.74-12.15 83.14-37.45ZM94.84-24.2L97.74-24.2 97.74-29.65 104.49-30.95 103.84-24.2 109.89-24.2 109.34-20.1 103.64-20.1 103.39-9.65Q103.39-7.3 103.84-6.53 104.29-5.75 105.49-5.75 106.69-5.75 108.69-6.3L108.69-6.3 108.99-2.75Q105.69 0 103.19 0 100.69 0 99.09-1.83 97.49-3.65 97.49-6.6L97.49-6.6 97.79-12.2 97.74-20.1 94.29-20.1 94.84-24.2ZM128.14-12.65Q128.14-16.1 127.54-17.25 126.94-18.4 124.74-18.4 122.54-18.4 119.74-16.65L119.74-16.65 119.74-13 120.29-1.25 113.54 0 114.14-12.15 113.54-37.45 120.39-38.7 119.74-25.75 119.74-19.9Q120.49-20.9 121.44-21.85 122.39-22.8 124.39-24 126.39-25.2 128.66-25.2 130.94-25.2 132.49-23.43 134.04-21.65 134.04-18.6L134.04-18.6 133.74-13 134.29-1 127.54 0.25 128.14-12.65ZM151.54 0.55L151.54 0.55Q145.99 0.55 142.19-4.1 138.39-8.75 138.39-15.5L138.39-15.5Q138.39-23.75 142.96-29.4 147.54-35.05 154.19-35.05L154.19-35.05Q156.79-35.05 159.01-34.52 161.24-34 162.19-33.45L162.19-33.45 163.09-32.9 159.69-25.95Q158.54-26.95 156.44-27.83 154.34-28.7 152.64-28.7L152.64-28.7Q149.19-28.7 147.11-25.85 145.04-23 145.04-17.73 145.04-12.45 147.19-9.08 149.34-5.7 153.04-5.7L153.04-5.7Q155.44-5.7 157.39-7.2 159.34-8.7 160.14-11.2L160.14-11.2 164.29-8.8Q162.64-4.4 159.24-1.93 155.84 0.55 151.54 0.55ZM165.83-10.45Q165.83-16.85 169.28-21.3 172.73-25.75 177.36-25.75 181.98-25.75 184.56-22.75 187.13-19.75 187.13-14.8L187.13-14.8Q187.13-8.2 183.81-3.83 180.48 0.55 175.43 0.55L175.43 0.55Q171.28 0.55 168.56-2.58 165.83-5.7 165.83-10.45L165.83-10.45ZM181.53-12.2L181.53-12.2Q181.53-19.45 176.58-19.45L176.58-19.45Q171.43-19.45 171.43-12.65L171.43-12.65Q171.43-9.1 172.88-7.1 174.33-5.1 176.71-5.1 179.08-5.1 180.31-6.93 181.53-8.75 181.53-12.2ZM205.93-12.65Q205.93-16.1 205.33-17.25 204.73-18.4 202.53-18.4 200.33-18.4 197.53-16.65L197.53-16.65 197.53-13 198.08-1.25 191.38 0 191.98-12.15Q191.78-18.85 190.88-24.15L190.88-24.15 196.93-25.45Q197.28-22.55 197.43-19.8L197.43-19.8Q198.18-20.8 199.13-21.78 200.08-22.75 202.13-23.98 204.18-25.2 206.46-25.2 208.73-25.2 210.28-23.43 211.83-21.65 211.83-18.6L211.83-18.6 211.53-13 212.08-1 205.33 0.25 205.93-12.65ZM232.08-12.65Q232.08-16.1 231.48-17.25 230.88-18.4 228.68-18.4 226.48-18.4 223.68-16.65L223.68-16.65 223.68-13 224.23-1.25 217.53 0 218.13-12.15Q217.93-18.85 217.03-24.15L217.03-24.15 223.08-25.45Q223.43-22.55 223.58-19.8L223.58-19.8Q224.33-20.8 225.28-21.78 226.23-22.75 228.28-23.98 230.33-25.2 232.6-25.2 234.88-25.2 236.43-23.43 237.98-21.65 237.98-18.6L237.98-18.6 237.68-13 238.23-1 231.48 0.25 232.08-12.65ZM252.73-5.1L252.73-5.1Q254.18-5.1 255.78-5.85 257.38-6.6 258.28-7.35L258.28-7.35 259.18-8.1 261.48-5.3Q260.98-4.45 259.93-3.35 258.88-2.25 257.8-1.48 256.73-0.7 254.95-0.08 253.18 0.55 251.28 0.55L251.28 0.55Q247.23 0.55 244.68-2.53 242.13-5.6 242.13-10.45L242.13-10.45Q242.13-16.55 245.68-21.15 249.23-25.75 253.98-25.75L253.98-25.75Q257.63-25.75 259.65-23.7 261.68-21.65 261.68-17.95L261.68-17.95Q261.68-15.75 260.93-12.95L260.93-12.95 259.93-11.9 247.43-10.75Q248.28-5.1 252.73-5.1ZM252.73-20.6L252.73-20.6Q250.53-20.6 249.03-18.82 247.53-17.05 247.28-14.3L247.28-14.3 255.78-15.35Q255.93-16.5 255.93-17.25L255.93-17.25Q255.93-20.6 252.73-20.6ZM274.62-19.25Q272.42-19.25 271.22-17.68 270.02-16.1 270.02-12.85 270.02-9.6 271.25-7.63 272.47-5.65 274.82-5.65L274.82-5.65Q276.02-5.65 277.17-6.4 278.32-7.15 278.92-7.9L278.92-7.9 279.47-8.7 281.97-6.1Q281.82-5.85 281.6-5.4 281.37-4.95 280.5-3.8 279.62-2.65 278.65-1.78 277.67-0.9 276.12-0.18 274.57 0.55 272.87 0.55L272.87 0.55Q269.12 0.55 266.77-2.5 264.42-5.55 264.42-10.45L264.42-10.45Q264.42-16.55 267.97-21.15 271.52-25.75 276.27-25.75L276.27-25.75Q277.72-25.75 279.17-25.33 280.62-24.9 282.12-24L282.12-24 278.62-17.85Q276.82-19.25 274.62-19.25ZM284.32-24.2L287.22-24.2 287.22-29.65 293.97-30.95 293.32-24.2 299.37-24.2 298.82-20.1 293.12-20.1 292.87-9.65Q292.87-7.3 293.32-6.53 293.77-5.75 294.97-5.75 296.17-5.75 298.17-6.3L298.17-6.3 298.47-2.75Q295.17 0 292.67 0 290.17 0 288.57-1.83 286.97-3.65 286.97-6.6L286.97-6.6 287.27-12.2 287.22-20.1 283.77-20.1 284.32-24.2Z" opacity="1" transform="matrix(1,0,0,1,0,0)" fill="#ffffff" class="wordmark-text-0" data-fill-palette-color="primary" id="text-0"></path></svg></g></svg></g></svg></g></svg></g><g transform="matrix(1,0,0,1,407.9265050648612,0)"><svg viewBox="0 0 101.04501282740219 72.62826377792824" height="72.62826377792824" width="101.04501282740219"><g><svg xmlns="http://www.w3.org/2000/svg" data-name="Layer 1" viewBox="0 17.996876070844685 128 92.00273723013214" x="0" y="0" height="72.62826377792824" width="101.04501282740219" class="icon-icon-0" data-fill-palette-color="accent" id="icon-0"></svg></g></svg></g></svg></g><defs></defs><mask id="54a77430-4a2d-4a63-8ecf-c5d96d3e4092"><g id="SvgjsG11192"><svg viewBox="0 0 395.52 56.439171701404995" height="56.439171701404995" width="395.52"><g><svg viewBox="0 0 508.97151789226336 72.62826377792824" height="56.439171701404995" width="395.52"><g transform="matrix(1,0,0,1,0,10.03762545700745)"><svg viewBox="0 0 395.52 52.55301286391334" height="52.55301286391334" width="395.52"><g id="SvgjsG11191"><svg viewBox="0 0 395.52 52.55301286391334" height="52.55301286391334" width="395.52" id="SvgjsSvg11190"><g><svg viewBox="0 0 395.52 52.55301286391334" height="52.55301286391334" width="395.52"><g transform="matrix(1,0,0,1,0,0)"><svg width="395.52" viewBox="4 -38.7 295.37 39.25" height="52.55301286391334" data-palette-color="#e4a7bf"><path d="M23.4-33.5L30.5-34.75 29.8-13 30.4 0 23.4 0 24-12.15 23.9-14.8 10.45-14.8 10.4-13 11 0 4 0 4.6-12.15 4-33.5 11.1-34.75 10.6-20.1 23.75-20.1 23.4-33.5ZM46.4-5.1L46.4-5.1Q47.85-5.1 49.45-5.85 51.05-6.6 51.95-7.35L51.95-7.35 52.85-8.1 55.15-5.3Q54.65-4.45 53.6-3.35 52.55-2.25 51.47-1.48 50.4-0.7 48.62-0.08 46.85 0.55 44.95 0.55L44.95 0.55Q40.9 0.55 38.35-2.53 35.8-5.6 35.8-10.45L35.8-10.45Q35.8-16.55 39.35-21.15 42.9-25.75 47.65-25.75L47.65-25.75Q51.3-25.75 53.32-23.7 55.35-21.65 55.35-17.95L55.35-17.95Q55.35-15.75 54.6-12.95L54.6-12.95 53.6-11.9 41.1-10.75Q41.95-5.1 46.4-5.1ZM46.4-20.6L46.4-20.6Q44.2-20.6 42.7-18.82 41.2-17.05 40.95-14.3L40.95-14.3 49.45-15.35Q49.6-16.5 49.6-17.25L49.6-17.25Q49.6-20.6 46.4-20.6ZM64.7 0Q61.75 0 59.87-1.88 58-3.75 58-6.93 58-10.1 60.9-12.43 63.8-14.75 67.95-14.75L67.95-14.75 71.34-14.75 71.34-15.6Q71.34-18.05 70.34-18.95 69.34-19.85 66.59-19.85L66.59-19.85Q65.45-19.85 63.87-19.38 62.3-18.9 60.34-17.9L60.34-17.9 58.9-21.85Q61.05-23.35 64.12-24.55 67.2-25.75 69.2-25.75L69.2-25.75Q77.05-25.75 77.05-18.15L77.05-18.15 77.05-8.35Q77.05-5.55 78.8-2.1L78.8-2.1 73.5 0.15Q72.25-2.25 71.65-4.15L71.65-4.15Q68.9 0 64.7 0L64.7 0ZM66.8-5.1L66.8-5.1Q68.8-5.1 71.34-7.15L71.34-7.15 71.34-10.5Q68.7-11.1 67.05-11.1L67.05-11.1Q63.9-11.1 63.9-8.3L63.9-8.3Q63.9-6.85 64.7-5.98 65.5-5.1 66.8-5.1ZM83.14-37.45L89.99-38.7 89.34-13 89.89-1.25 83.14 0 83.74-12.15 83.14-37.45ZM94.84-24.2L97.74-24.2 97.74-29.65 104.49-30.95 103.84-24.2 109.89-24.2 109.34-20.1 103.64-20.1 103.39-9.65Q103.39-7.3 103.84-6.53 104.29-5.75 105.49-5.75 106.69-5.75 108.69-6.3L108.69-6.3 108.99-2.75Q105.69 0 103.19 0 100.69 0 99.09-1.83 97.49-3.65 97.49-6.6L97.49-6.6 97.79-12.2 97.74-20.1 94.29-20.1 94.84-24.2ZM128.14-12.65Q128.14-16.1 127.54-17.25 126.94-18.4 124.74-18.4 122.54-18.4 119.74-16.65L119.74-16.65 119.74-13 120.29-1.25 113.54 0 114.14-12.15 113.54-37.45 120.39-38.7 119.74-25.75 119.74-19.9Q120.49-20.9 121.44-21.85 122.39-22.8 124.39-24 126.39-25.2 128.66-25.2 130.94-25.2 132.49-23.43 134.04-21.65 134.04-18.6L134.04-18.6 133.74-13 134.29-1 127.54 0.25 128.14-12.65ZM151.54 0.55L151.54 0.55Q145.99 0.55 142.19-4.1 138.39-8.75 138.39-15.5L138.39-15.5Q138.39-23.75 142.96-29.4 147.54-35.05 154.19-35.05L154.19-35.05Q156.79-35.05 159.01-34.52 161.24-34 162.19-33.45L162.19-33.45 163.09-32.9 159.69-25.95Q158.54-26.95 156.44-27.83 154.34-28.7 152.64-28.7L152.64-28.7Q149.19-28.7 147.11-25.85 145.04-23 145.04-17.73 145.04-12.45 147.19-9.08 149.34-5.7 153.04-5.7L153.04-5.7Q155.44-5.7 157.39-7.2 159.34-8.7 160.14-11.2L160.14-11.2 164.29-8.8Q162.64-4.4 159.24-1.93 155.84 0.55 151.54 0.55ZM165.83-10.45Q165.83-16.85 169.28-21.3 172.73-25.75 177.36-25.75 181.98-25.75 184.56-22.75 187.13-19.75 187.13-14.8L187.13-14.8Q187.13-8.2 183.81-3.83 180.48 0.55 175.43 0.55L175.43 0.55Q171.28 0.55 168.56-2.58 165.83-5.7 165.83-10.45L165.83-10.45ZM181.53-12.2L181.53-12.2Q181.53-19.45 176.58-19.45L176.58-19.45Q171.43-19.45 171.43-12.65L171.43-12.65Q171.43-9.1 172.88-7.1 174.33-5.1 176.71-5.1 179.08-5.1 180.31-6.93 181.53-8.75 181.53-12.2ZM205.93-12.65Q205.93-16.1 205.33-17.25 204.73-18.4 202.53-18.4 200.33-18.4 197.53-16.65L197.53-16.65 197.53-13 198.08-1.25 191.38 0 191.98-12.15Q191.78-18.85 190.88-24.15L190.88-24.15 196.93-25.45Q197.28-22.55 197.43-19.8L197.43-19.8Q198.18-20.8 199.13-21.78 200.08-22.75 202.13-23.98 204.18-25.2 206.46-25.2 208.73-25.2 210.28-23.43 211.83-21.65 211.83-18.6L211.83-18.6 211.53-13 212.08-1 205.33 0.25 205.93-12.65ZM232.08-12.65Q232.08-16.1 231.48-17.25 230.88-18.4 228.68-18.4 226.48-18.4 223.68-16.65L223.68-16.65 223.68-13 224.23-1.25 217.53 0 218.13-12.15Q217.93-18.85 217.03-24.15L217.03-24.15 223.08-25.45Q223.43-22.55 223.58-19.8L223.58-19.8Q224.33-20.8 225.28-21.78 226.23-22.75 228.28-23.98 230.33-25.2 232.6-25.2 234.88-25.2 236.43-23.43 237.98-21.65 237.98-18.6L237.98-18.6 237.68-13 238.23-1 231.48 0.25 232.08-12.65ZM252.73-5.1L252.73-5.1Q254.18-5.1 255.78-5.85 257.38-6.6 258.28-7.35L258.28-7.35 259.18-8.1 261.48-5.3Q260.98-4.45 259.93-3.35 258.88-2.25 257.8-1.48 256.73-0.7 254.95-0.08 253.18 0.55 251.28 0.55L251.28 0.55Q247.23 0.55 244.68-2.53 242.13-5.6 242.13-10.45L242.13-10.45Q242.13-16.55 245.68-21.15 249.23-25.75 253.98-25.75L253.98-25.75Q257.63-25.75 259.65-23.7 261.68-21.65 261.68-17.95L261.68-17.95Q261.68-15.75 260.93-12.95L260.93-12.95 259.93-11.9 247.43-10.75Q248.28-5.1 252.73-5.1ZM252.73-20.6L252.73-20.6Q250.53-20.6 249.03-18.82 247.53-17.05 247.28-14.3L247.28-14.3 255.78-15.35Q255.93-16.5 255.93-17.25L255.93-17.25Q255.93-20.6 252.73-20.6ZM274.62-19.25Q272.42-19.25 271.22-17.68 270.02-16.1 270.02-12.85 270.02-9.6 271.25-7.63 272.47-5.65 274.82-5.65L274.82-5.65Q276.02-5.65 277.17-6.4 278.32-7.15 278.92-7.9L278.92-7.9 279.47-8.7 281.97-6.1Q281.82-5.85 281.6-5.4 281.37-4.95 280.5-3.8 279.62-2.65 278.65-1.78 277.67-0.9 276.12-0.18 274.57 0.55 272.87 0.55L272.87 0.55Q269.12 0.55 266.77-2.5 264.42-5.55 264.42-10.45L264.42-10.45Q264.42-16.55 267.97-21.15 271.52-25.75 276.27-25.75L276.27-25.75Q277.72-25.75 279.17-25.33 280.62-24.9 282.12-24L282.12-24 278.62-17.85Q276.82-19.25 274.62-19.25ZM284.32-24.2L287.22-24.2 287.22-29.65 293.97-30.95 293.32-24.2 299.37-24.2 298.82-20.1 293.12-20.1 292.87-9.65Q292.87-7.3 293.32-6.53 293.77-5.75 294.97-5.75 296.17-5.75 298.17-6.3L298.17-6.3 298.47-2.75Q295.17 0 292.67 0 290.17 0 288.57-1.83 286.97-3.65 286.97-6.6L286.97-6.6 287.27-12.2 287.22-20.1 283.77-20.1 284.32-24.2Z" opacity="1" transform="matrix(1,0,0,1,0,0)" fill="black" class="wordmark-text-0" id="SvgjsPath11189"></path></svg></g></svg></g></svg></g></svg></g><g transform="matrix(1,0,0,1,407.9265050648612,0)"><svg viewBox="0 0 101.04501282740219 72.62826377792824" height="72.62826377792824" width="101.04501282740219"><g><svg xmlns="http://www.w3.org/2000/svg" data-name="Layer 1" viewBox="0 17.996876070844685 128 92.00273723013214" x="0" y="0" height="72.62826377792824" width="101.04501282740219" class="icon-icon-0" data-fill-palette-color="accent" id="SvgjsSvg11188"><path d="M18.094 56.911L18.584 55.888C16.874 46.904 18.969 38.943 24.84 32.227 31.475 24.637 38.634 21.972 45.422 21.972 51.878 21.972 57.998 24.385 63.002 27.267H63.004A46 46 0 0 1 70.389 32.483 2 2 0 0 0 73.095 29.536 45 45 0 0 0 68.01 25.666C78.056 20.78 91.433 18.811 103.16 32.226 109.175 39.11 111.238 47.296 109.293 56.554A45.2 45.2 0 0 1 105.079 68.007 6 6 0 0 1 105.536 68.784L107.23 72.321A50.8 50.8 0 0 0 113.208 57.376C115.396 46.971 112.962 37.363 106.172 29.594 91.192 12.457 73.706 17.934 64 23.24 54.293 17.932 36.807 12.457 21.828 29.594A30.58 30.58 0 0 0 14.072 48.26C14.111 48.335 14.16 48.404 14.194 48.48Z" fill="white"></path><path d="M24.624 71.057L23.411 73.591A6 6 0 0 1 22.431 75.036C32.02 89.875 48.273 102.838 63.15 109.81A2 2 0 0 0 64.85 109.81 106.7 106.7 0 0 0 99.26 83.464L98.253 81.36 96.106 83.375A5.96 5.96 0 0 1 92.592 84.945 103.6 103.6 0 0 1 64 105.784C49.281 98.682 33.35 85.671 24.624 71.057" fill="white"></path><path d="M2 53L7.47 53.001 16.186 71.84A2 2 0 0 0 17.986 73H18A2 2 0 0 0 19.804 71.863L28.499 53.703 34.632 59.458A2 2 0 0 0 36 60H49.295A7 7 0 1 0 49.295 56H36.79L29.243 48.917A2 2 0 0 0 26.071 49.512L18.031 66.304 10.564 50.16A2 2 0 0 0 8.75 49.001L2 49A2 2 0 0 0 2 53M56 55A3 3 0 1 1 53 58 3.003 3.003 0 0 1 56 55" fill="white"></path><path d="M126 70L119.251 70.001A2 2 0 0 0 117.436 71.161L109.969 87.304 101.929 70.512A2 2 0 0 0 98.757 69.917L91.209 77H78.705A7 7 0 1 0 78.705 81H92A2 2 0 0 0 93.368 80.458L99.501 74.703 108.196 92.863A2 2 0 0 0 110 94H110.014A2 2 0 0 0 111.815 92.84L120.53 74H126A2 2 0 0 0 126 70M72 82A3 3 0 1 1 75 79 3.003 3.003 0 0 1 72 82" fill="white"></path></svg></g></svg></g></svg></g><defs><mask></mask></defs></svg><rect width="395.52" height="56.439171701404995" fill="black" stroke="none" visibility="hidden"></rect></g></mask><linearGradient x1="0" x2="1" y1="0.548" y2="0.55" id="7111deba-9b20-4011-b0a5-a31dfc1cf7f5"><stop stop-color="#ff6cab" offset="0"></stop><stop stop-color="#7366ff" offset="1"></stop></linearGradient><rect width="395.52" height="56.439171701404995" fill="#ffffff" mask="url(#54a77430-4a2d-4a63-8ecf-c5d96d3e4092)" data-fill-palette-color="accent"></rect></svg><rect width="395.52" height="56.439171701404995" fill="none" stroke="none" visibility="hidden"></rect></g></svg></g></svg>